<svg width="284" height="73" viewBox="0 0 284 73" fill="none" xmlns="http://www.w3.org/2000/svg">
<path d="M247.541 45.9623L237.134 29.134L230.07 37.185L235.858 47.0777C236.052 47.41 236.409 47.6143 236.794 47.6143H246.618C247.467 47.6143 247.987 46.6838 247.541 45.9623Z" fill="white"/>
<path d="M246.211 18.7898C246.848 18.0637 246.334 16.9261 245.367 16.9228L236.771 16.8946C236.431 16.8935 236.11 17.045 235.895 17.3075L222.139 34.1037L222.236 1.15797C222.238 0.536613 221.736 0.0311623 221.113 0.0289879L212.3 1.14441e-05C211.678 -0.00197983 211.172 0.500214 211.17 1.12157L211.039 44.4597C211.033 46.1905 212.433 47.5982 214.167 47.6038L217.304 47.6142C219.593 47.6218 221.774 46.6387 223.283 44.9192L230.07 37.1849L237.134 29.1339L246.211 18.7898Z" fill="#69CF90"/>
<path d="M31.5699 41.2469C32.0304 41.4027 32.1943 41.969 31.888 42.346L22.1724 54.3023C22.04 54.4653 21.841 54.56 21.6308 54.56L16.308 54.5631C15.7094 54.5633 15.3884 53.8603 15.781 53.409L29.9156 37.1751C30.8459 36.1066 32.1938 35.4928 33.6116 35.4919L35.5541 35.491C36.6274 35.4903 37.4979 36.3587 37.4985 37.4304L37.5209 72.2909C37.5211 72.6757 37.209 72.988 36.8236 72.9881L31.3664 72.9912C30.981 72.9914 30.6686 72.6795 30.6682 72.2947L30.6483 41.9072C30.6481 41.4302 31.1172 41.0939 31.5699 41.2469Z" fill="#69CF90"/>
<path d="M22.6874 31.5429C22.6814 32.0283 22.1926 32.3589 21.7389 32.1845L7.3495 26.6523C7.15327 26.5768 7.00165 26.4172 6.93655 26.2176L5.28892 21.1633C5.10357 20.595 5.67412 20.0727 6.22508 20.3063L26.0543 28.7136C27.3593 29.2668 28.3604 30.3574 28.7993 31.7035L29.4006 33.5481C29.7329 34.5673 29.1749 35.6622 28.1544 35.994L2.60321 44.308C2.23669 44.4271 1.84296 44.227 1.72363 43.861L0.0344759 38.6792C-0.0848568 38.3134 0.115541 37.9202 0.482063 37.801L21.7737 30.8717C22.228 30.724 22.6934 31.0657 22.6874 31.5429Z" fill="white"/>
<path d="M29.1836 20.1106C28.7195 20.2549 28.2534 19.8929 28.2794 19.4081L29.1018 4.03262C29.1131 3.82308 29.2183 3.62967 29.3882 3.50634L33.6927 0.379629C34.1767 0.0279312 34.8505 0.408426 34.7982 1.00389L32.9188 22.4337C32.7951 23.8441 32.0657 25.132 30.9192 25.9648L29.3483 27.106C28.4805 27.7364 27.265 27.5448 26.6337 26.678L10.8198 4.98104C10.5931 4.66973 10.662 4.234 10.9738 4.00762L15.3869 0.801956C15.6985 0.575581 16.1348 0.6444 16.3615 0.955711L29.5405 19.0354C29.8216 19.4213 29.6399 19.9688 29.1836 20.1106Z" fill="white"/>
<path d="M42.0807 22.7465C41.7998 22.3503 42.0007 21.7959 42.4703 21.6708L57.3682 17.7005C57.5711 17.6464 57.7878 17.6866 57.9579 17.8097L62.2659 20.9317C62.7505 21.2827 62.5963 22.0401 62.0129 22.1746L41.0223 27.0118C39.6407 27.3302 38.189 27.0356 37.0415 26.2039L35.4694 25.0646C34.6007 24.4351 34.4075 23.2218 35.0379 22.3545L50.8154 0.630863C51.0417 0.31937 51.4781 0.250189 51.79 0.476202L56.2068 3.6768C56.5187 3.90281 56.588 4.33854 56.3616 4.65004L43.2149 22.7532C42.9344 23.1394 42.3567 23.1361 42.0807 22.7465Z" fill="white"/>
<path d="M43.5534 35.8099C43.8439 35.4207 44.4341 35.4401 44.6983 35.8476L53.0833 48.7693C53.1976 48.9453 53.2264 49.1636 53.1615 49.3631L51.5195 54.4193C51.3349 54.9879 50.5659 55.0756 50.2576 54.5631L39.1642 36.1228C38.4341 34.9091 38.2659 33.4393 38.7034 32.0924L39.3026 30.2472C39.6337 29.2278 40.7297 28.6695 41.7505 29L67.3155 37.2712C67.6822 37.39 67.8829 37.783 67.764 38.149L66.0806 43.3326C65.9616 43.6988 65.5681 43.8993 65.2016 43.7805L43.8976 36.8893C43.443 36.742 43.2678 36.1924 43.5534 35.8099Z" fill="white"/>
<path d="M107.784 15.9797C110.729 15.9797 113.243 16.5711 115.327 17.7543C117.409 18.9383 118.999 20.6066 120.095 22.7579C121.19 24.9103 121.738 27.4577 121.738 30.3982V46.5575C121.738 47.1412 121.264 47.6142 120.68 47.6142H111.805C111.221 47.6142 110.747 47.1412 110.747 46.5575V32.0118C110.747 29.7174 110.163 27.9591 108.996 26.7396C107.829 25.521 106.149 24.9103 103.959 24.9103C102.45 24.9103 101.13 25.2334 99.9993 25.8786C98.8674 26.5239 97.996 27.4385 97.3854 28.6225C96.9771 29.4145 96.7053 30.3022 96.57 31.2861C96.471 32.0064 95.6812 32.4066 95.0363 32.0692L93.7434 31.3928C93.3437 31.1836 93.1137 30.7399 93.1844 30.295C93.6512 27.3568 94.531 24.8534 95.8233 22.7853C97.2241 20.5438 98.9485 18.8492 100.995 17.7007C103.043 16.5539 105.306 15.9797 107.784 15.9797ZM84.7134 16.8942H93.576C94.095 16.8942 94.5373 17.2702 94.6206 17.7818L96.4559 29.0763C96.465 29.1323 96.4695 29.189 96.4695 29.2457V46.5575C96.4695 47.1412 95.9956 47.6142 95.4113 47.6142H86.5375C85.953 47.6142 85.4793 47.1412 85.4793 46.5575V27.5942C85.4793 27.527 85.473 27.46 85.4601 27.3939L83.6743 18.1513C83.5484 17.4993 84.0486 16.8942 84.7134 16.8942Z" fill="white"/>
<path d="M145.713 40.3508C147.508 40.3508 149.044 40.0286 150.319 39.3824C151.594 38.7372 152.572 37.8145 153.255 36.6121C153.937 35.4109 154.279 33.9675 154.279 32.2811C154.279 30.5592 153.937 29.0984 153.255 27.8963C152.572 26.6949 151.594 25.7713 150.319 25.1251C149.044 24.4798 147.508 24.1567 145.713 24.1567C143.916 24.1567 142.372 24.4798 141.079 25.1251C139.786 25.7713 138.798 26.6949 138.116 27.8963C137.434 29.0984 137.092 30.5418 137.092 32.2273C137.092 33.9137 137.434 35.3662 138.116 36.5848C138.798 37.8043 139.786 38.7372 141.079 39.3824C142.372 40.0286 143.916 40.3508 145.713 40.3508ZM145.713 48.4752C141.761 48.4752 138.313 47.8026 135.369 46.4575C132.423 45.1123 130.124 43.2122 128.472 40.7548C126.82 38.2986 125.993 35.4736 125.993 32.2811C125.993 29.0175 126.82 26.1662 128.472 23.7263C130.124 21.2881 132.423 19.3869 135.369 18.0236C138.313 16.6613 141.761 15.9797 145.713 15.9797C149.627 15.9797 153.066 16.6613 156.03 18.0236C158.993 19.3869 161.301 21.2881 162.953 23.7263C164.605 26.1662 165.432 28.9992 165.432 32.2273C165.432 35.4555 164.605 38.2986 162.953 40.7548C161.301 43.2122 158.993 45.1123 156.03 46.4575C153.066 47.8026 149.627 48.4752 145.713 48.4752Z" fill="white"/>
<path d="M205.523 34.6482C206.19 34.6482 206.694 35.2596 206.568 35.9141C206.136 38.1561 205.193 40.1551 203.737 41.9116C202.013 43.9921 199.777 45.6057 197.029 46.7532C194.281 47.9008 191.201 48.4751 187.79 48.4751C184.018 48.4751 180.696 47.7934 177.822 46.4301C174.949 45.0679 172.704 43.1676 171.088 40.7276C169.471 38.2885 168.663 35.4737 168.663 32.2811C168.663 29.0529 169.471 26.22 171.088 23.7809C172.704 21.3418 174.949 19.4316 177.822 18.0511C180.696 16.6703 184.018 15.9796 187.79 15.9796C191.201 15.9796 194.281 16.5629 197.029 17.728C199.777 18.8937 202.013 20.5082 203.737 22.5695C205.198 24.3182 206.143 26.3303 206.573 28.6065C206.695 29.2565 206.19 29.8603 205.527 29.8603H196.627C196.172 29.8603 195.762 29.5709 195.627 29.1377C195.163 27.6561 194.31 26.4891 193.069 25.6366C191.632 24.6509 189.872 24.1567 187.79 24.1567C186.173 24.1567 184.763 24.4716 183.56 25.0988C182.356 25.7267 181.423 26.6412 180.758 27.8426C180.093 29.0448 179.761 30.5237 179.761 32.2811C179.761 34.003 180.093 35.4646 180.758 36.6659C181.423 37.868 182.356 38.7828 183.56 39.4097C184.763 40.0378 186.173 40.3507 187.79 40.3507C189.872 40.3507 191.642 39.8312 193.097 38.7909C194.342 37.9004 195.186 36.7606 195.628 35.3708C195.766 34.9382 196.172 34.6482 196.627 34.6482H205.523Z" fill="white"/>
<path d="M267.258 48.4752C263.522 48.4752 260.191 47.7935 257.264 46.4302C254.336 45.0677 252.029 43.1584 250.341 40.7012C248.652 38.245 247.808 35.3836 247.808 32.1199C247.808 28.9275 248.616 26.1208 250.233 23.6998C251.849 21.2791 254.066 19.3871 256.887 18.0238C259.706 16.6613 262.894 15.9797 266.45 15.9797C270.148 15.9797 273.301 16.7778 275.906 18.3731C278.509 19.9695 280.52 22.2201 281.94 25.1251C283.096 27.4943 283.781 30.2088 283.995 33.2688C284.076 34.425 283.135 35.4017 281.975 35.4017L257.509 35.4018C257.061 35.4018 256.698 35.0396 256.698 34.5929V29.5925C256.698 29.1459 257.061 28.7837 257.509 28.7837H275.11C275.919 28.7837 276.228 29.837 275.547 30.2733L275.321 30.4183C274.837 30.7287 274.201 30.4442 274.092 29.8797C273.888 28.8205 273.55 27.8901 273.077 27.0891C272.431 25.9951 271.577 25.1615 270.517 24.5872C269.458 24.0139 268.192 23.7263 266.719 23.7263C265.103 23.7263 263.72 24.0494 262.57 24.6946C261.421 25.3408 260.523 26.2282 259.877 27.3584C259.23 28.4878 258.907 29.8066 258.907 31.3128C258.907 33.2495 259.347 34.8902 260.227 36.2355C261.107 37.5805 262.4 38.6117 264.106 39.3288C265.812 40.0469 267.905 40.4046 270.383 40.4046C272.646 40.4046 274.899 40.1087 277.144 39.5172C278.924 39.0483 280.574 38.4266 282.094 37.6531C282.629 37.3809 283.259 37.775 283.259 38.3746V43.5677C283.259 43.843 283.123 44.103 282.892 44.2532C280.861 45.5699 278.569 46.5919 276.013 47.3185C273.301 48.0892 270.383 48.4752 267.258 48.4752Z" fill="white"/>
</svg>
